<?xml version="1.0" encoding="utf-8"?>
<!-- Generator: Adobe Illustrator 16.0.0, SVG Export Plug-In . SVG Version: 6.00 Build 0)  -->
<!DOCTYPE svg PUBLIC "-//W3C//DTD SVG 1.1//EN" "http://www.w3.org/Graphics/SVG/1.1/DTD/svg11.dtd">
<svg version="1.1" id="Calque_1" xmlns="http://www.w3.org/2000/svg" xmlns:xlink="http://www.w3.org/1999/xlink" x="0px" y="0px"
	 width="190.534px" height="70.48px" viewBox="0 0 190.534 70.48" enable-background="new 0 0 190.534 70.48" xml:space="preserve">
<path fill="#E4F5FD" d="M30.667,31.416c0,0-30.667-0.667-30.667,16.666c0,17.334,30.667,22,44.667,12c0,0,25.333,22,56.667,2
	c0,0,27.333,16.667,52,2.667c0,0,32.666,2.667,36.666-15.333s-15.333-22-29.333-18c0,0-2.667-22-28-24s-29.333,7.333-29.333,7.333
	s-4-13.333-24.667-14.667c-20.667-1.333-26,14-24,21.334C54.667,21.416,36.667,12.082,30.667,31.416z"/>
<path fill="#D4EFFC" d="M153.333,54.415c-24.667,14-52-2.666-52-2.666c-31.334,20-56.667-2-56.667-2
	C32.2,58.653,6.537,55.918,1.06,42.977C0.393,44.479,0,46.165,0,48.082c0,17.333,30.667,22,44.667,12c0,0,25.333,22,56.667,2
	c0,0,27.333,16.667,52,2.667c0,0,32.666,2.666,36.666-15.334c0.825-3.712,0.646-6.82-0.264-9.394
	C184.813,56.972,153.333,54.415,153.333,54.415z"/>
</svg>
