<?xml version="1.0" encoding="utf-8"?>
<!-- Generator: Adobe Illustrator 16.0.0, SVG Export Plug-In . SVG Version: 6.00 Build 0)  -->
<!DOCTYPE svg PUBLIC "-//W3C//DTD SVG 1.1//EN" "http://www.w3.org/Graphics/SVG/1.1/DTD/svg11.dtd">
<svg version="1.1" id="Calque_1" xmlns="http://www.w3.org/2000/svg" xmlns:xlink="http://www.w3.org/1999/xlink" x="0px" y="0px"
	 width="721.244px" height="461.294px" viewBox="0 0 721.244 461.294" enable-background="new 0 0 721.244 461.294"
	 xml:space="preserve">
<g>
	<polygon fill="#919FB8" points="0,461.294 360.622,0 721.244,461.294 	"/>
	<polygon fill="#FFFFFF" points="360.622,160.826 384.842,130.498 435.678,150.561 438.931,100.17 438.931,100.17 360.622,0 
		282.313,100.17 282.313,146.454 321.806,123.312 	"/>
	<polygon fill="#818DA3" points="721.244,461.294 360.622,0 360.622,0.001 334.006,99.232 360.622,160.826 427.544,218.673 
		360.622,353.821 390.942,400.969 316.911,461.294 	"/>
	<polygon fill="#D9F1FD" points="334.006,99.232 360.622,160.826 384.842,130.498 435.678,150.561 438.931,100.17 438.931,100.17 
		360.622,0 360.622,0.001 	"/>
</g>
<polygon fill="#697386" points="722.071,462.074 361.449,0.78 283.141,100.949 283.141,100.949 0.827,462.074 722.071,462.074 
	722.071,462.074 "/>
</svg>
