<?xml version="1.0" encoding="utf-8"?>
<!-- Generator: Adobe Illustrator 16.0.0, SVG Export Plug-In . SVG Version: 6.00 Build 0)  -->
<!DOCTYPE svg PUBLIC "-//W3C//DTD SVG 1.1//EN" "http://www.w3.org/Graphics/SVG/1.1/DTD/svg11.dtd">
<svg version="1.1" id="Calque_1" xmlns="http://www.w3.org/2000/svg" xmlns:xlink="http://www.w3.org/1999/xlink" x="0px" y="0px"
	 width="1334.98px" height="800px" viewBox="0 0 1334.98 800" enable-background="new 0 0 1334.98 800" xml:space="preserve">
<polyline fill="none" points="1039.173,0 1039.173,800 239.173,800 "/>
<polyline fill="#697386" points="1334.98,791.971 974.358,330.678 896.05,430.847 896.05,430.847 613.737,791.971 1334.98,791.971 
	"/>
<polyline fill="none" points="1039.173,0 1039.173,800 239.173,800 "/>
<polyline fill="#697386" points="0,780.104 721.244,780.104 721.244,780.104 360.622,318.81 282.314,418.979 282.314,418.979 
	0,780.104 "/>
<polyline fill="none" points="1039.173,0 1039.173,800 239.173,800 "/>
<polygon fill="#697386" points="1061.131,795.017 700.509,449.467 622.2,524.503 622.2,524.503 339.887,795.018 1061.131,795.018 
	"/>
<polyline fill="none" points="1039.173,0 1039.173,800 239.173,800 "/>
<g>
	<polygon fill="#919FB8" points="213.825,708.429 519.7,334.132 825.574,708.429 	"/>
	<polygon fill="#FFFFFF" points="519.7,464.628 540.243,440.018 583.361,456.298 586.12,415.41 586.12,415.41 519.7,334.132 
		453.279,415.41 453.279,452.966 486.777,434.188 	"/>
	<polygon fill="#818DA3" points="825.574,708.429 519.7,334.132 519.7,334.132 497.125,414.648 519.7,464.628 576.462,511.564 
		519.7,621.225 545.417,659.48 482.625,708.429 	"/>
	<polygon fill="#D9F1FD" points="497.125,414.648 519.7,464.628 540.243,440.018 583.361,456.298 586.12,415.41 586.12,415.41 
		519.7,334.132 519.7,334.132 	"/>
</g>
<polyline fill="none" points="1039.173,0 1039.173,800 239.173,800 "/>
<polyline fill="#919FB8" points="1231.899,741.277 510.654,741.277 871.276,279.984 1231.899,741.277 "/>
<polygon fill="#FFFFFF" points="871.276,440.81 895.496,410.481 946.332,430.545 949.585,380.153 949.585,380.153 871.276,279.984 
	792.968,380.153 792.968,426.438 832.46,403.296 "/>
<polyline fill="#818DA3" points="1231.899,741.277 871.276,279.984 871.276,279.985 844.66,379.217 871.276,440.81 938.198,498.657 
	871.276,633.805 901.597,680.953 827.565,741.277 1231.899,741.277 "/>
<polygon fill="#D9F1FD" points="844.66,379.217 871.276,440.81 895.496,410.481 946.332,430.545 949.585,380.153 949.585,380.153 
	871.276,279.984 871.276,279.985 "/>
<polyline fill="none" points="1039.173,0 1039.173,800 239.173,800 "/>
<polyline fill="none" points="1039.173,0 1039.173,800 239.173,800 "/>
<g>
	<g>
		<path fill="#A3723D" d="M825.709,690.104c-6.413,0-11.346,0-11.346,0"/>
		<path fill="#A3723D" d="M814.363,723.542h11.346"/>
	</g>
	<g>
		<path fill="#B68046" d="M496.923,702.063"/>
	</g>
	<path fill="#B9D53F" d="M336.133,684.465"/>
	<path fill="#B9D53F" d="M360.621,678.021"/>
	<path fill="#B9D53F" d="M355.783,667.423"/>
	<path fill="#B9D53F" d="M341.414,678.593"/>
	<path fill="#B9D53F" d="M251.413,649.62"/>
</g>
<polyline fill="none" points="1039.173,0 1039.173,800 239.173,800 "/>
<polyline fill="none" points="1039.173,0 1039.173,800 239.173,800 "/>
<polyline fill="none" points="1039.173,0 1039.173,800 239.173,800 "/>
<polyline fill="none" points="1039.173,0 1039.173,800 239.173,800 "/>
<polyline fill="none" points="1039.173,0 1039.173,800 239.173,800 "/>
<polyline fill="none" points="1039.173,0 1039.173,800 239.173,800 "/>
<polyline fill="none" points="1039.173,0 1039.173,800 239.173,800 "/>
<polyline fill="none" points="1039.173,0 1039.173,800 239.173,800 "/>
<polyline fill="none" points="1039.173,0 1039.173,800 239.173,800 "/>
<polyline fill="none" points="1039.173,0 1039.173,800 239.173,800 "/>
</svg>
